<svg width="666.814" height="101.3" viewBox="0 0 666.814 101.3" xmlns="http://www.w3.org/2000/svg">
<defs><filter style="color-interpolation-filters:sRGB" id="a" x="0" y="0" width="1.009" height="1.059"><feFlood result="flood" flood-opacity="0.251" flood-color="#000"></feFlood><feGaussianBlur result="blur" in="SourceGraphic"></feGaussianBlur><feOffset result="offset" in="blur" dx="6" dy="6"></feOffset><feComposite result="comp1" operator="in" in="flood" in2="offset"></feComposite><feComposite result="comp2" in="SourceGraphic" in2="comp1"></feComposite></filter></defs>
<g id="svgGroup" fill-rule="evenodd" font-size="9pt" fill="#fff" style="fill:#fff;filter:url(#a)"><path d="M 162.3 78.4 L 161.8 68.9 L 168 67.1 L 168 42.9 Q 168 40.965 167.768 40.229 A 1.521 1.521 0 0 0 167.7 40.05 A 1.737 1.737 0 0 0 167.438 39.656 Q 167.134 39.3 166.565 38.904 A 9.802 9.802 0 0 0 166.1 38.6 L 161.7 36.2 L 162 28.7 L 164.2 28.3 A 305.79 305.79 0 0 1 170.294 27.15 Q 178.75 25.65 183.1 25.5 A 26.949 26.949 0 0 1 184.021 28.429 A 32.622 32.622 0 0 1 184.4 30.1 Q 190.222 27.428 193.994 26.35 A 30.384 30.384 0 0 1 194.35 26.25 A 30.862 30.862 0 0 1 198.426 25.416 A 24.246 24.246 0 0 1 201.6 25.2 A 18.91 18.91 0 0 1 208.369 26.314 Q 217.5 29.802 217.5 44.2 L 217.5 63.8 A 23.402 23.402 0 0 0 217.514 64.652 Q 217.566 66.053 217.8 66.6 Q 218.042 67.165 219.002 67.796 A 9.419 9.419 0 0 0 219.5 68.1 L 224.3 70.9 L 223.9 78.4 L 196.3 78.4 L 195.8 68.9 L 200.7 67.5 L 200.7 48.6 Q 200.7 44.175 200.41 42.361 A 9.332 9.332 0 0 0 200.4 42.3 Q 200.1 40.5 198.75 39.5 A 3.848 3.848 0 0 0 197.722 38.978 Q 196.671 38.612 195.043 38.526 A 19.918 19.918 0 0 0 194 38.5 A 30.641 30.641 0 0 0 191.3 38.63 Q 189.905 38.754 188.305 38.997 A 73.818 73.818 0 0 0 184.9 39.6 L 184.9 63.8 A 23.402 23.402 0 0 0 184.914 64.652 Q 184.966 66.053 185.2 66.6 Q 185.453 67.191 186.419 67.853 A 9.216 9.216 0 0 0 186.8 68.1 L 191.7 70.9 L 191.3 78.4 L 162.3 78.4 Z M 264.3 27.7 L 276.3 24 L 281 24 L 281 38.5 L 273.2 38.5 A 25.121 25.121 0 0 1 273.697 43.024 A 23.157 23.157 0 0 1 273.7 43.4 Q 273.7 52.6 267.5 57.4 A 20.135 20.135 0 0 1 261.371 60.552 Q 256.331 62.2 249.3 62.2 Q 245.2 62.2 241.9 61.6 L 241.9 63 Q 241.9 64.6 243.25 65.25 Q 244.422 65.814 247.97 66.341 A 76.988 76.988 0 0 0 249.1 66.5 L 258.1 67.8 Q 266.631 69.007 270.919 71.639 A 12.049 12.049 0 0 1 272.75 73 A 12.176 12.176 0 0 1 276.788 81.872 A 16.134 16.134 0 0 1 276.8 82.5 A 17.375 17.375 0 0 1 275.602 89.078 Q 273.823 93.471 269.4 96.4 A 25.711 25.711 0 0 1 262.519 99.527 Q 259.202 100.517 255.185 100.955 A 62.829 62.829 0 0 1 248.4 101.3 Q 236.9 101.3 231.05 97.7 A 12.501 12.501 0 0 1 227.208 94.136 Q 225.2 91.202 225.2 87.1 A 15.267 15.267 0 0 1 229.005 77.036 A 22.948 22.948 0 0 1 232 74.1 A 8.072 8.072 0 0 1 230.72 72.469 A 5.802 5.802 0 0 1 229.9 69.5 Q 229.9 66.677 232.79 62.009 A 50.774 50.774 0 0 1 234.6 59.3 Q 226.4 55 226.4 44.5 A 21.66 21.66 0 0 1 227.207 38.423 A 16.044 16.044 0 0 1 232.65 30.25 A 20.344 20.344 0 0 1 239.181 26.798 Q 242.079 25.849 245.597 25.464 A 46.911 46.911 0 0 1 250.7 25.2 A 45.277 45.277 0 0 1 256.278 25.523 Q 260.905 26.098 264.3 27.7 Z M 598.9 27.7 L 610.9 24 L 615.6 24 L 615.6 38.5 L 607.8 38.5 A 25.121 25.121 0 0 1 608.297 43.024 A 23.157 23.157 0 0 1 608.3 43.4 Q 608.3 52.6 602.1 57.4 A 20.135 20.135 0 0 1 595.971 60.552 Q 590.931 62.2 583.9 62.2 Q 579.8 62.2 576.5 61.6 L 576.5 63 Q 576.5 64.6 577.85 65.25 Q 579.022 65.814 582.57 66.341 A 76.988 76.988 0 0 0 583.7 66.5 L 592.7 67.8 Q 601.231 69.007 605.519 71.639 A 12.049 12.049 0 0 1 607.35 73 A 12.176 12.176 0 0 1 611.388 81.872 A 16.134 16.134 0 0 1 611.4 82.5 A 17.375 17.375 0 0 1 610.202 89.078 Q 608.423 93.471 604 96.4 A 25.711 25.711 0 0 1 597.119 99.527 Q 593.802 100.517 589.785 100.955 A 62.829 62.829 0 0 1 583 101.3 Q 571.5 101.3 565.65 97.7 A 12.501 12.501 0 0 1 561.808 94.136 Q 559.8 91.202 559.8 87.1 A 15.267 15.267 0 0 1 563.605 77.036 A 22.948 22.948 0 0 1 566.6 74.1 A 8.072 8.072 0 0 1 565.32 72.469 A 5.802 5.802 0 0 1 564.5 69.5 Q 564.5 66.677 567.39 62.009 A 50.774 50.774 0 0 1 569.2 59.3 Q 561 55 561 44.5 A 21.66 21.66 0 0 1 561.807 38.423 A 16.044 16.044 0 0 1 567.25 30.25 A 20.344 20.344 0 0 1 573.781 26.798 Q 576.679 25.849 580.197 25.464 A 46.911 46.911 0 0 1 585.3 25.2 A 45.277 45.277 0 0 1 590.878 25.523 Q 595.505 26.098 598.9 27.7 Z M 121.7 38.3 L 117.6 46.4 L 110.2 45.9 Q 108.5 37.9 107.8 29.3 Q 113.4 27.4 120.05 26.3 A 84.491 84.491 0 0 1 127.262 25.411 A 67.407 67.407 0 0 1 132.5 25.2 A 43.01 43.01 0 0 1 137.708 25.493 Q 143.377 26.187 146.669 28.525 A 11.346 11.346 0 0 1 147.7 29.35 A 12.287 12.287 0 0 1 150.885 34.127 Q 151.67 36.15 152.019 38.69 A 32.411 32.411 0 0 1 152.3 43.1 L 152.3 64 A 14.595 14.595 0 0 0 152.322 64.828 Q 152.387 65.974 152.65 66.5 A 2.114 2.114 0 0 0 152.981 66.97 Q 153.344 67.37 153.983 67.769 A 8.364 8.364 0 0 0 154.2 67.9 L 158.2 70.2 L 157.8 76.4 Q 146.2 79.1 139.5 79.4 A 12.083 12.083 0 0 1 139.388 79.044 Q 139.221 78.482 138.962 77.49 A 108.961 108.961 0 0 1 138.9 77.25 A 77.226 77.226 0 0 1 138.397 75.19 A 65.247 65.247 0 0 1 138.2 74.3 A 36.531 36.531 0 0 1 129.723 78.277 A 40.298 40.298 0 0 1 129.65 78.3 Q 125 79.8 120.8 79.8 A 20.01 20.01 0 0 1 116.125 79.284 A 13.825 13.825 0 0 1 109.9 76.05 A 12.367 12.367 0 0 1 105.812 67.039 A 16.488 16.488 0 0 1 105.8 66.4 A 12.888 12.888 0 0 1 110.652 56.131 A 20.244 20.244 0 0 1 113.75 54 A 31.104 31.104 0 0 1 120.072 51.367 Q 126.925 49.294 136.9 48.9 Q 136.9 45.098 136.409 42.899 A 9.678 9.678 0 0 0 136.15 41.95 A 5.769 5.769 0 0 0 135.381 40.406 A 4.578 4.578 0 0 0 133.45 38.85 Q 131.752 38.11 128.498 38.014 A 34.038 34.038 0 0 0 127.5 38 Q 123.4 38 121.7 38.3 Z M 535.4 25.4 L 535.4 19.4 A 25.543 25.543 0 0 0 535.386 18.509 Q 535.341 17.242 535.159 16.662 A 1.721 1.721 0 0 0 535.1 16.5 Q 534.858 15.935 533.898 15.304 A 9.419 9.419 0 0 0 533.4 15 L 528.9 12.7 L 529.4 5.1 Q 538.826 3.431 543.432 2.774 A 130.509 130.509 0 0 1 543.6 2.75 Q 548.2 2.1 550.9 2 A 20.407 20.407 0 0 1 551.754 4.777 A 26.409 26.409 0 0 1 552.2 7.2 L 552.2 64.1 A 14.595 14.595 0 0 0 552.222 64.928 Q 552.287 66.074 552.55 66.6 A 1.935 1.935 0 0 0 552.877 67.054 Q 553.241 67.441 553.897 67.829 A 8.713 8.713 0 0 0 554.2 68 L 558 70.3 L 557.6 76.5 A 100.846 100.846 0 0 1 541.939 79.242 A 91.112 91.112 0 0 1 538.4 79.5 Q 537.7 77.6 537 74.9 A 25.755 25.755 0 0 1 528.304 79.052 A 24.093 24.093 0 0 1 522.3 79.8 Q 512.7 79.8 507.3 72.6 Q 501.9 65.4 501.9 53.3 A 41.954 41.954 0 0 1 502.618 45.277 Q 504.197 37.181 509.25 32.3 Q 515.782 25.99 527.249 25.288 A 48.272 48.272 0 0 1 530.2 25.2 Q 530.883 25.2 534.194 25.346 A 887.392 887.392 0 0 1 535.4 25.4 Z M 0.9 77.9 L 0.4 68.3 L 7.7 66.3 L 7.7 28.2 A 26.845 26.845 0 0 0 7.681 27.146 Q 7.619 25.59 7.361 24.896 A 1.902 1.902 0 0 0 7.3 24.75 Q 6.96 24.027 5.68 23.413 A 9.252 9.252 0 0 0 5.2 23.2 L 0 20.3 L 0.6 12 A 1885.546 1885.546 0 0 1 7.936 11.449 Q 10.799 11.24 13.34 11.065 A 888.188 888.188 0 0 1 18.1 10.75 Q 25.2 10.3 29.5 10.3 Q 43.3 10.3 51.65 13.5 A 26.075 26.075 0 0 1 58.194 17.084 A 20.998 20.998 0 0 1 63.85 23.6 Q 67.7 30.5 67.7 41.9 A 51.422 51.422 0 0 1 66.848 51.54 Q 65.755 57.26 63.264 61.814 A 29.211 29.211 0 0 1 61.1 65.2 Q 55.2 72.9 45.45 75.85 A 60.225 60.225 0 0 1 37.413 77.648 Q 33.078 78.332 28.034 78.61 A 131.652 131.652 0 0 1 20.8 78.8 Q 10 78.8 0.9 77.9 Z M 362.5 78.1 L 362 68.3 L 369.3 66.3 L 369.3 28.2 A 26.845 26.845 0 0 0 369.281 27.146 Q 369.219 25.59 368.961 24.896 A 1.902 1.902 0 0 0 368.9 24.75 Q 368.56 24.027 367.28 23.413 A 9.252 9.252 0 0 0 366.8 23.2 L 361.6 20.3 L 362.2 12 A 301.508 301.508 0 0 1 373.703 10.72 Q 379.357 10.208 384.31 10.015 A 146.892 146.892 0 0 1 390 9.9 A 76.339 76.339 0 0 1 397.292 10.223 Q 404.552 10.922 409.072 13.136 A 17.768 17.768 0 0 1 410.8 14.1 A 13.77 13.77 0 0 1 417.168 24.16 A 21.666 21.666 0 0 1 417.4 27.4 A 24.68 24.68 0 0 1 417.092 31.388 A 18.421 18.421 0 0 1 416 35.35 Q 414.6 38.8 411.7 41.6 A 20.067 20.067 0 0 1 416.838 44.838 Q 421.548 49.023 421.695 55.763 A 20.039 20.039 0 0 1 421.7 56.2 Q 421.7 65.2 416.7 70.7 Q 412.217 75.631 403.956 77.508 A 40.016 40.016 0 0 1 402 77.9 A 15.594 15.594 0 0 1 399.959 78.284 Q 396.44 78.752 389.114 78.864 A 327.921 327.921 0 0 1 384.1 78.9 Q 373.3 78.9 362.5 78.1 Z M 666.8 52.9 L 636.4 58.5 A 17.721 17.721 0 0 0 637.498 61.122 Q 638.216 62.492 639.118 63.502 A 8.893 8.893 0 0 0 640.35 64.65 A 8.989 8.989 0 0 0 643.579 66.186 Q 645.164 66.6 647.1 66.6 A 24.399 24.399 0 0 0 649.43 66.48 Q 650.724 66.356 652.185 66.102 A 49.732 49.732 0 0 0 654 65.75 Q 658 64.9 662.1 63.4 L 664.4 73.3 A 24.25 24.25 0 0 1 660.595 75.632 Q 658.669 76.595 656.372 77.389 A 44.818 44.818 0 0 1 654.8 77.9 Q 648.9 79.7 642.9 79.7 A 30.821 30.821 0 0 1 635.49 78.861 A 20.499 20.499 0 0 1 624.85 72.6 Q 619.036 66.1 618.545 55.074 A 46.603 46.603 0 0 1 618.5 53 A 40.941 40.941 0 0 1 619.072 45.976 Q 619.785 41.887 621.383 38.499 A 25.343 25.343 0 0 1 621.6 38.05 A 22.788 22.788 0 0 1 626.864 31.05 A 21.574 21.574 0 0 1 630.4 28.5 Q 636.1 25.2 643.7 25.2 A 28.301 28.301 0 0 1 650.848 26.051 A 19.339 19.339 0 0 1 661.05 32.4 Q 666.814 39.26 666.814 51.657 A 55.127 55.127 0 0 1 666.8 52.9 Z M 426.3 78.5 L 425.8 69 L 431.9 67.2 L 431.9 42.9 Q 431.9 40.965 431.668 40.229 A 1.521 1.521 0 0 0 431.6 40.05 A 1.737 1.737 0 0 0 431.338 39.656 Q 431.034 39.3 430.465 38.904 A 9.802 9.802 0 0 0 430 38.6 L 425.6 36.2 L 425.9 28.7 A 28.569 28.569 0 0 1 427.105 28.442 Q 427.666 28.335 428.158 28.27 A 13.239 13.239 0 0 1 428.8 28.2 A 253.247 253.247 0 0 1 434.456 27.094 Q 442.35 25.65 446.7 25.5 A 36.861 36.861 0 0 1 447.361 27.633 Q 447.63 28.598 447.89 29.689 A 75.84 75.84 0 0 1 448.4 32 A 80.775 80.775 0 0 1 451.974 29.346 Q 455.526 26.867 458.31 25.627 A 22.025 22.025 0 0 1 458.6 25.5 L 464.3 25.5 Q 464.2 29.3 463.8 33.75 A 93.02 93.02 0 0 1 463.53 36.36 Q 463.223 38.957 462.826 40.779 A 27.135 27.135 0 0 1 462.8 40.9 Q 459.2 40.7 457.5 40.7 A 77.432 77.432 0 0 0 450.199 41.056 A 86.802 86.802 0 0 0 448.8 41.2 L 448.8 63.9 A 23.402 23.402 0 0 0 448.814 64.752 Q 448.866 66.153 449.1 66.7 Q 449.353 67.291 450.319 67.953 A 9.216 9.216 0 0 0 450.7 68.2 L 456.7 71.4 L 456.3 78.5 L 426.3 78.5 Z M 73.7 90.1 L 81.7 80.8 L 81.7 42.9 Q 81.7 40.965 81.468 40.229 A 1.521 1.521 0 0 0 81.4 40.05 A 1.592 1.592 0 0 0 81.144 39.673 Q 80.706 39.175 79.7 38.6 L 75.2 36.2 L 75.7 28.7 Q 76.755 28.549 77.356 28.398 A 4.775 4.775 0 0 0 77.7 28.3 A 294.817 294.817 0 0 1 78.311 28.19 Q 80.066 27.875 85.55 26.9 A 132.129 132.129 0 0 1 89.925 26.193 Q 91.886 25.912 93.605 25.739 A 57.41 57.41 0 0 1 96.8 25.5 A 94.738 94.738 0 0 1 98.131 30.337 A 83.804 83.804 0 0 1 98.5 31.9 L 98.5 67.2 Q 98.5 77.4 97 84.2 A 36.218 36.218 0 0 1 91.814 96.335 A 41.362 41.362 0 0 1 91.3 97.1 L 88.5 101.2 Q 83.4 98.5 80.7 96.45 A 38.962 38.962 0 0 1 78.906 94.992 Q 76.69 93.09 73.7 90.1 Z M 290.15 73.3 A 18.42 18.42 0 0 0 294.955 76.87 Q 300.574 79.8 309.1 79.8 Q 321.8 79.8 328.85 72.45 A 22.691 22.691 0 0 0 331.11 69.689 Q 333.905 65.668 335.069 60.316 A 39.13 39.13 0 0 0 335.9 52 Q 335.9 31.272 320.406 26.576 A 35.909 35.909 0 0 0 310 25.2 Q 302 25.2 296.1 28.6 Q 290.2 32 287.05 38.4 A 29.55 29.55 0 0 0 284.581 45.88 A 39.613 39.613 0 0 0 283.9 53.4 A 48.372 48.372 0 0 0 284.208 59.014 Q 284.659 62.867 285.769 65.993 A 20.051 20.051 0 0 0 290.15 73.3 Z M 468.5 78.5 L 468.2 69.3 L 475.2 67.2 L 475.2 42.9 A 21.72 21.72 0 0 0 475.183 42.012 Q 475.131 40.742 474.916 40.194 A 1.326 1.326 0 0 0 474.85 40.05 A 1.852 1.852 0 0 0 474.57 39.673 Q 474.106 39.175 473.1 38.6 L 468.7 36.2 L 469.2 28.7 Q 477.5 27.1 482.05 26.35 Q 486.6 25.6 490.4 25.5 Q 491.7 29.8 492 31.9 L 492 63.9 A 23.402 23.402 0 0 0 492.014 64.752 Q 492.066 66.153 492.3 66.7 Q 492.542 67.265 493.502 67.896 A 9.419 9.419 0 0 0 494 68.2 L 498.9 71 L 498.5 78.5 L 468.5 78.5 Z M 25.8 23 L 25.8 64 A 65.417 65.417 0 0 0 30.644 64.43 A 55.204 55.204 0 0 0 33.4 64.5 A 57.753 57.753 0 0 0 38.308 64.305 Q 40.741 64.097 42.786 63.667 A 22.759 22.759 0 0 0 46.7 62.5 A 19.047 19.047 0 0 0 47.194 60.872 Q 47.618 59.248 48.006 56.94 A 88.585 88.585 0 0 0 48.35 54.7 A 78.325 78.325 0 0 0 48.956 48.959 A 62.363 62.363 0 0 0 49.1 44.8 A 43.933 43.933 0 0 0 48.732 38.91 Q 48.321 35.879 47.45 33.431 A 16.596 16.596 0 0 0 44.45 28.1 A 14.643 14.643 0 0 0 37.452 23.661 Q 35.094 22.94 32.25 22.76 A 30.844 30.844 0 0 0 30.3 22.7 Q 29 22.7 27.9 22.8 Q 26.8 22.9 25.8 23 Z M 313.878 67.82 A 10.888 10.888 0 0 0 314.2 67.75 Q 315.7 67.4 317.4 66.6 A 28.163 28.163 0 0 0 317.805 64.779 Q 318.144 63.006 318.4 60.7 A 64.771 64.771 0 0 0 318.775 55.469 A 56.348 56.348 0 0 0 318.8 53.8 A 41.325 41.325 0 0 0 318.575 49.334 Q 318.043 44.453 316.25 41.5 A 8.92 8.92 0 0 0 313.774 38.781 Q 311.669 37.3 308.7 37.3 A 25.9 25.9 0 0 0 302.531 38.065 A 28.984 28.984 0 0 0 302 38.2 A 7.585 7.585 0 0 0 301.63 39.19 Q 301.296 40.288 301.05 41.931 A 38.104 38.104 0 0 0 300.9 43.05 Q 300.527 46.178 300.502 50.133 A 90.426 90.426 0 0 0 300.5 50.7 Q 300.5 55.997 301.554 59.743 A 16.241 16.241 0 0 0 303.15 63.6 A 10.13 10.13 0 0 0 305.238 66.162 Q 307.449 68.07 310.6 68.1 A 10.595 10.595 0 0 0 310.7 68.1 Q 312.489 68.1 313.878 67.82 Z M 535.5 64.8 L 535.5 38.9 A 14.077 14.077 0 0 0 532.782 38.058 Q 531.412 37.772 529.809 37.664 A 30.085 30.085 0 0 0 527.8 37.6 Q 524 37.6 520.5 38.6 Q 519.7 40.5 519.25 43.8 Q 518.8 47.1 518.8 51.1 Q 518.8 58.242 520.507 62.084 A 10.805 10.805 0 0 0 521.05 63.15 A 7.536 7.536 0 0 0 523.828 65.976 Q 525.232 66.776 527.05 66.951 A 10.965 10.965 0 0 0 528.1 67 Q 530.76 67 533.939 65.571 A 24.872 24.872 0 0 0 535.5 64.8 Z M 82.9 19.8 L 78.8 4.5 L 95.8 0 L 100 15.2 L 82.9 19.8 Z M 476.6 19.8 L 472.4 4.5 L 489.4 0 L 493.5 15.2 L 476.6 19.8 Z M 389 49.4 L 386.7 49.5 L 386.7 65.8 Q 390.173 66.495 394.531 66.5 A 55.085 55.085 0 0 0 394.6 66.5 Q 398.985 66.5 401.417 65.908 A 8.704 8.704 0 0 0 402.7 65.5 A 38.241 38.241 0 0 0 403.347 62.399 Q 403.606 60.814 403.675 59.4 A 20.59 20.59 0 0 0 403.7 58.4 A 15.094 15.094 0 0 0 403.5 55.85 Q 402.979 52.818 401.1 51.3 A 7.502 7.502 0 0 0 398.947 50.126 Q 396.417 49.2 392.3 49.2 Q 391.427 49.2 390.237 49.29 A 52.095 52.095 0 0 0 389 49.4 Z M 386.7 21.5 L 386.7 38.2 A 45.13 45.13 0 0 1 387.612 38.156 Q 388.869 38.108 390.542 38.101 A 137.406 137.406 0 0 1 391.1 38.1 A 99.798 99.798 0 0 1 396.03 38.217 A 82.475 82.475 0 0 1 398.8 38.4 A 10.687 10.687 0 0 0 399.272 36.716 Q 399.631 34.96 399.746 32.35 A 60.455 60.455 0 0 0 399.8 29.7 Q 399.8 25.5 397.85 23.5 A 6.483 6.483 0 0 0 395.526 22.003 Q 394.544 21.62 393.332 21.439 A 14.709 14.709 0 0 0 391.9 21.3 Q 389.3 21.3 386.7 21.5 Z M 252.8 80.5 L 249.6 80 Q 245.2 79.5 240.7 78.6 A 35.715 35.715 0 0 0 240.385 80.171 Q 240.1 81.797 240.1 82.9 Q 240.1 86.131 242.677 87.872 A 7.787 7.787 0 0 0 243.3 88.25 A 11.409 11.409 0 0 0 245.755 89.21 Q 248.228 89.889 251.801 89.984 A 44.901 44.901 0 0 0 253 90 A 42.926 42.926 0 0 0 255.413 89.937 Q 258.275 89.775 260 89.2 A 4.982 4.982 0 0 0 260.377 88.14 Q 260.6 87.219 260.6 86 A 5.396 5.396 0 0 0 260.399 84.486 A 3.963 3.963 0 0 0 258.9 82.35 A 6.081 6.081 0 0 0 257.692 81.682 Q 256.41 81.133 254.409 80.758 A 32.824 32.824 0 0 0 252.8 80.5 Z M 587.4 80.5 L 584.2 80 Q 579.8 79.5 575.3 78.6 A 35.715 35.715 0 0 0 574.985 80.171 Q 574.7 81.797 574.7 82.9 Q 574.7 86.131 577.277 87.872 A 7.787 7.787 0 0 0 577.9 88.25 A 11.409 11.409 0 0 0 580.355 89.21 Q 582.828 89.889 586.401 89.984 A 44.901 44.901 0 0 0 587.6 90 A 42.926 42.926 0 0 0 590.013 89.937 Q 592.875 89.775 594.6 89.2 A 4.982 4.982 0 0 0 594.977 88.14 Q 595.2 87.219 595.2 86 A 5.396 5.396 0 0 0 594.999 84.486 A 3.963 3.963 0 0 0 593.5 82.35 A 6.081 6.081 0 0 0 592.292 81.682 Q 591.01 81.133 589.009 80.758 A 32.824 32.824 0 0 0 587.4 80.5 Z M 250.8 52.4 A 17.72 17.72 0 0 0 252.752 52.285 Q 253.749 52.174 254.852 51.957 A 31.79 31.79 0 0 0 255.6 51.8 A 10.665 10.665 0 0 0 255.821 51.03 Q 256.098 49.925 256.35 48.2 Q 256.7 45.8 256.7 43.8 A 16.511 16.511 0 0 0 256.528 41.332 Q 256.121 38.647 254.75 37.1 A 6.055 6.055 0 0 0 252.071 35.383 Q 251.075 35.051 249.855 34.947 A 13.623 13.623 0 0 0 248.7 34.9 Q 246.763 34.9 244.45 35.463 A 24.979 24.979 0 0 0 244.3 35.5 A 8.366 8.366 0 0 0 244.003 36.354 Q 243.735 37.267 243.519 38.565 A 32.255 32.255 0 0 0 243.45 39 A 30.718 30.718 0 0 0 243.134 42.068 A 26.371 26.371 0 0 0 243.1 43.4 A 17.822 17.822 0 0 0 243.25 45.798 Q 243.634 48.619 245 50.2 Q 246.699 52.167 249.996 52.375 A 12.749 12.749 0 0 0 250.8 52.4 Z M 585.4 52.4 A 17.72 17.72 0 0 0 587.352 52.285 Q 588.349 52.174 589.452 51.957 A 31.79 31.79 0 0 0 590.2 51.8 A 10.665 10.665 0 0 0 590.421 51.03 Q 590.698 49.925 590.95 48.2 Q 591.3 45.8 591.3 43.8 A 16.511 16.511 0 0 0 591.128 41.332 Q 590.721 38.647 589.35 37.1 A 6.055 6.055 0 0 0 586.671 35.383 Q 585.675 35.051 584.455 34.947 A 13.623 13.623 0 0 0 583.3 34.9 Q 581.363 34.9 579.05 35.463 A 24.979 24.979 0 0 0 578.9 35.5 A 8.366 8.366 0 0 0 578.603 36.354 Q 578.335 37.267 578.119 38.565 A 32.255 32.255 0 0 0 578.05 39 A 30.718 30.718 0 0 0 577.734 42.068 A 26.371 26.371 0 0 0 577.7 43.4 A 17.822 17.822 0 0 0 577.85 45.798 Q 578.234 48.619 579.6 50.2 Q 581.299 52.167 584.596 52.375 A 12.749 12.749 0 0 0 585.4 52.4 Z M 137.2 65.8 L 136.8 58.2 A 138.795 138.795 0 0 0 135.827 58.122 Q 134.225 58 133.6 58 Q 131.339 58 128.447 58.386 A 60.905 60.905 0 0 0 127.3 58.55 A 58.25 58.25 0 0 0 125.196 58.908 Q 123.187 59.292 121.795 59.736 A 16.582 16.582 0 0 0 121.6 59.8 Q 121.3 61.1 121.3 62.2 A 8.761 8.761 0 0 0 121.486 64.063 Q 121.75 65.275 122.388 66.182 A 5.068 5.068 0 0 0 122.95 66.85 A 5.449 5.449 0 0 0 125.615 68.296 A 8.207 8.207 0 0 0 127.5 68.5 A 15.159 15.159 0 0 0 130.667 68.136 Q 133.593 67.509 137.2 65.8 Z M 635.4 48.6 L 650.4 44.5 Q 650.271 42.046 649.412 40.447 A 5.461 5.461 0 0 0 648.25 38.95 A 6.44 6.44 0 0 0 645.697 37.572 Q 644.413 37.2 642.8 37.2 A 18.841 18.841 0 0 0 638.037 37.791 A 17.438 17.438 0 0 0 637.3 38 A 24.109 24.109 0 0 0 635.383 47.454 Q 635.383 47.534 635.383 47.615 A 28.096 28.096 0 0 0 635.4 48.6 Z" vector-effect="non-scaling-stroke"/></g></svg>
