<?xml version="1.0" encoding="UTF-8" standalone="no"?>
<svg
   width="702.00006"
   height="107.30035"
   viewBox="0 0 702.00006 107.30034"
   version="1.1"
   id="svg1"
   sodipodi:docname="django-render-text.svg"
   inkscape:version="1.3.2 (091e20e, 2023-11-25)"
   xmlns:inkscape="http://www.inkscape.org/namespaces/inkscape"
   xmlns:sodipodi="http://sodipodi.sourceforge.net/DTD/sodipodi-0.dtd"
   xmlns="http://www.w3.org/2000/svg"
   xmlns:svg="http://www.w3.org/2000/svg">
  <defs
     id="defs1">
    <filter
       style="color-interpolation-filters:sRGB"
       inkscape:label="Drop Shadow"
       id="filter12"
       x="0"
       y="0"
       width="1.0086207"
       height="1.0592298">
      <feFlood
         result="flood"
         in="SourceGraphic"
         flood-opacity="0.250980"
         flood-color="rgb(0,0,0)"
         id="feFlood11" />
      <feGaussianBlur
         result="blur"
         in="SourceGraphic"
         stdDeviation="0.000000"
         id="feGaussianBlur11" />
      <feOffset
         result="offset"
         in="blur"
         dx="6.000000"
         dy="6.000000"
         id="feOffset11" />
      <feComposite
         result="comp1"
         operator="in"
         in="flood"
         in2="offset"
         id="feComposite11" />
      <feComposite
         result="comp2"
         operator="over"
         in="SourceGraphic"
         in2="comp1"
         id="feComposite12" />
    </filter>
  </defs>
  <sodipodi:namedview
     id="namedview1"
     pagecolor="#ffffff"
     bordercolor="#000000"
     borderopacity="0.25"
     inkscape:showpageshadow="2"
     inkscape:pageopacity="0.0"
     inkscape:pagecheckerboard="0"
     inkscape:deskcolor="#d1d1d1"
     inkscape:zoom="1.1867816"
     inkscape:cx="347.57869"
     inkscape:cy="50.556901"
     inkscape:window-width="1312"
     inkscape:window-height="449"
     inkscape:window-x="0"
     inkscape:window-y="38"
     inkscape:window-maximized="0"
     inkscape:current-layer="svgGroup" />
  <g
     id="svgGroup"
     stroke-linecap="round"
     fill-rule="evenodd"
     font-size="12px"
     fill="#ffffff"
     style="fill:#ffffff">
    <path
       d="m 162.3,78.4 -0.5,-9.5 6.2,-1.8 V 42.9 q 0,-1.935 -0.232,-2.671 A 1.521,1.521 0 0 0 167.7,40.05 1.737,1.737 0 0 0 167.438,39.656 Q 167.134,39.3 166.565,38.904 A 9.802,9.802 0 0 0 166.1,38.6 l -4.4,-2.4 0.3,-7.5 2.2,-0.4 a 305.79,305.79 0 0 1 6.094,-1.15 q 8.456,-1.5 12.806,-1.65 a 26.949,26.949 0 0 1 0.921,2.929 32.622,32.622 0 0 1 0.379,1.671 q 5.822,-2.672 9.594,-3.75 a 30.384,30.384 0 0 1 0.356,-0.1 30.862,30.862 0 0 1 4.076,-0.834 24.246,24.246 0 0 1 3.174,-0.216 18.91,18.91 0 0 1 6.769,1.114 Q 217.5,29.802 217.5,44.2 v 19.6 a 23.402,23.402 0 0 0 0.014,0.852 q 0.052,1.401 0.286,1.948 0.242,0.565 1.202,1.196 A 9.419,9.419 0 0 0 219.5,68.1 l 4.8,2.8 -0.4,7.5 h -27.6 l -0.5,-9.5 4.9,-1.4 V 48.6 q 0,-4.425 -0.29,-6.239 A 9.332,9.332 0 0 0 200.4,42.3 q -0.3,-1.8 -1.65,-2.8 a 3.848,3.848 0 0 0 -1.028,-0.522 q -1.051,-0.366 -2.679,-0.452 A 19.918,19.918 0 0 0 194,38.5 a 30.641,30.641 0 0 0 -2.7,0.13 q -1.395,0.124 -2.995,0.367 A 73.818,73.818 0 0 0 184.9,39.6 v 24.2 a 23.402,23.402 0 0 0 0.014,0.852 q 0.052,1.401 0.286,1.948 0.253,0.591 1.219,1.253 A 9.216,9.216 0 0 0 186.8,68.1 l 4.9,2.8 -0.4,7.5 z m 318.6,0 -0.5,-9.5 6.2,-1.8 V 42.9 q 0,-1.935 -0.232,-2.671 A 1.521,1.521 0 0 0 486.3,40.05 1.737,1.737 0 0 0 486.038,39.656 Q 485.734,39.3 485.165,38.904 A 9.802,9.802 0 0 0 484.7,38.6 l -4.4,-2.4 0.3,-7.5 2.2,-0.4 a 305.79,305.79 0 0 1 6.094,-1.15 q 8.456,-1.5 12.806,-1.65 a 26.949,26.949 0 0 1 0.921,2.929 A 32.622,32.622 0 0 1 503,30.1 q 5.822,-2.672 9.594,-3.75 a 30.384,30.384 0 0 1 0.356,-0.1 30.862,30.862 0 0 1 4.076,-0.834 24.246,24.246 0 0 1 3.174,-0.216 18.91,18.91 0 0 1 6.769,1.114 Q 536.1,29.802 536.1,44.2 v 19.6 a 23.402,23.402 0 0 0 0.014,0.852 q 0.052,1.401 0.286,1.948 0.242,0.565 1.202,1.196 A 9.419,9.419 0 0 0 538.1,68.1 l 4.8,2.8 -0.4,7.5 h -27.6 l -0.5,-9.5 4.9,-1.4 V 48.6 q 0,-4.425 -0.29,-6.239 A 9.332,9.332 0 0 0 519,42.3 q -0.3,-1.8 -1.65,-2.8 a 3.848,3.848 0 0 0 -1.028,-0.522 q -1.051,-0.366 -2.679,-0.452 A 19.918,19.918 0 0 0 512.6,38.5 a 30.641,30.641 0 0 0 -2.7,0.13 q -1.395,0.124 -2.995,0.367 A 73.818,73.818 0 0 0 503.5,39.6 v 24.2 a 23.402,23.402 0 0 0 0.014,0.852 q 0.052,1.401 0.286,1.948 0.253,0.591 1.219,1.253 A 9.216,9.216 0 0 0 505.4,68.1 l 4.9,2.8 -0.4,7.5 z m -118.4,0.1 -0.5,-10.2 7.3,-2 V 28.2 a 26.845,26.845 0 0 0 -0.019,-1.054 q -0.062,-1.556 -0.32,-2.25 A 1.902,1.902 0 0 0 368.9,24.75 q -0.34,-0.723 -1.62,-1.337 A 9.252,9.252 0 0 0 366.8,23.2 l -5.2,-2.9 0.6,-8.2 q 15,-2.2 28.9,-2.2 a 89.986,89.986 0 0 1 6.34,0.21 q 3.261,0.231 6.026,0.716 a 36.836,36.836 0 0 1 5.034,1.224 23.235,23.235 0 0 1 4.43,1.938 q 3.308,1.909 5.22,4.762 3.05,4.55 3.05,12.05 0,6.2 -3.2,10.85 a 19.317,19.317 0 0 1 -6.319,5.766 24.705,24.705 0 0 1 -2.781,1.384 l 16,25.8 -0.1,3.9 h -18.2 l -14.8,-26.7 -4.4,-0.1 v 11.2 a 26.59,26.59 0 0 0 0.012,0.838 q 0.042,1.33 0.229,1.939 a 1.516,1.516 0 0 0 0.109,0.273 1.852,1.852 0 0 0 0.28,0.377 q 0.464,0.498 1.47,1.073 l 4.3,2.5 -0.4,8.6 z m -98.2,-50.8 12,-3.7 h 4.7 v 14.5 h -7.8 a 25.121,25.121 0 0 1 0.497,4.524 23.157,23.157 0 0 1 0.003,0.376 q 0,9.2 -6.2,14 a 20.135,20.135 0 0 1 -6.129,3.152 q -5.04,1.648 -12.071,1.648 -4.1,0 -7.4,-0.6 V 63 q 0,1.6 1.35,2.25 1.172,0.564 4.72,1.091 a 76.988,76.988 0 0 0 1.13,0.159 l 9,1.3 q 8.531,1.207 12.819,3.839 a 12.049,12.049 0 0 1 1.831,1.361 12.176,12.176 0 0 1 4.038,8.872 16.134,16.134 0 0 1 0.012,0.628 17.375,17.375 0 0 1 -1.198,6.578 q -1.779,4.393 -6.202,7.322 a 25.711,25.711 0 0 1 -6.881,3.127 q -3.317,0.99 -7.334,1.428 A 62.829,62.829 0 0 1 248.4,101.3 q -11.5,0 -17.35,-3.6 a 12.501,12.501 0 0 1 -3.842,-3.564 Q 225.2,91.202 225.2,87.1 A 15.267,15.267 0 0 1 229.005,77.036 22.948,22.948 0 0 1 232,74.1 8.072,8.072 0 0 1 230.72,72.469 5.802,5.802 0 0 1 229.9,69.5 q 0,-2.823 2.89,-7.491 A 50.774,50.774 0 0 1 234.6,59.3 Q 226.4,55 226.4,44.5 a 21.66,21.66 0 0 1 0.807,-6.077 16.044,16.044 0 0 1 5.443,-8.173 20.344,20.344 0 0 1 6.531,-3.452 q 2.898,-0.949 6.416,-1.334 a 46.911,46.911 0 0 1 5.103,-0.264 45.277,45.277 0 0 1 5.578,0.323 q 4.627,0.575 8.022,2.177 z m -142.6,10.6 -4.1,8.1 -7.4,-0.5 q -1.7,-8 -2.4,-16.6 5.6,-1.9 12.25,-3 a 84.491,84.491 0 0 1 7.212,-0.889 67.407,67.407 0 0 1 5.238,-0.211 43.01,43.01 0 0 1 5.208,0.293 q 5.669,0.694 8.961,3.032 a 11.346,11.346 0 0 1 1.031,0.825 12.287,12.287 0 0 1 3.185,4.777 q 0.785,2.023 1.134,4.563 A 32.411,32.411 0 0 1 152.3,43.1 V 64 a 14.595,14.595 0 0 0 0.022,0.828 q 0.065,1.146 0.328,1.672 a 2.114,2.114 0 0 0 0.331,0.47 q 0.363,0.4 1.002,0.799 A 8.364,8.364 0 0 0 154.2,67.9 l 4,2.3 -0.4,6.2 q -11.6,2.7 -18.3,3 a 12.083,12.083 0 0 1 -0.112,-0.356 q -0.167,-0.562 -0.426,-1.554 A 108.961,108.961 0 0 1 138.9,77.25 77.226,77.226 0 0 1 138.397,75.19 65.247,65.247 0 0 1 138.2,74.3 36.531,36.531 0 0 1 129.723,78.277 40.298,40.298 0 0 1 129.65,78.3 Q 125,79.8 120.8,79.8 A 20.01,20.01 0 0 1 116.125,79.284 13.825,13.825 0 0 1 109.9,76.05 12.367,12.367 0 0 1 105.812,67.039 16.488,16.488 0 0 1 105.8,66.4 12.888,12.888 0 0 1 110.652,56.131 20.244,20.244 0 0 1 113.75,54 a 31.104,31.104 0 0 1 6.322,-2.633 q 6.853,-2.073 16.828,-2.467 0,-3.802 -0.491,-6.001 A 9.678,9.678 0 0 0 136.15,41.95 5.769,5.769 0 0 0 135.381,40.406 4.578,4.578 0 0 0 133.45,38.85 q -1.698,-0.74 -4.952,-0.836 A 34.038,34.038 0 0 0 127.5,38 q -4.1,0 -5.8,0.3 z M 578.8,25.4 v -6 a 25.543,25.543 0 0 0 -0.014,-0.891 q -0.045,-1.267 -0.227,-1.847 A 1.721,1.721 0 0 0 578.5,16.5 q -0.242,-0.565 -1.202,-1.196 A 9.419,9.419 0 0 0 576.8,15 l -4.5,-2.3 0.5,-7.6 q 9.426,-1.669 14.032,-2.326 A 130.509,130.509 0 0 1 587,2.75 Q 591.6,2.1 594.3,2 a 20.407,20.407 0 0 1 0.854,2.777 26.409,26.409 0 0 1 0.446,2.423 v 56.9 a 14.595,14.595 0 0 0 0.022,0.828 q 0.065,1.146 0.328,1.672 a 1.935,1.935 0 0 0 0.327,0.454 q 0.364,0.387 1.02,0.775 A 8.713,8.713 0 0 0 597.6,68 l 3.8,2.3 -0.4,6.2 A 100.846,100.846 0 0 1 585.339,79.242 91.112,91.112 0 0 1 581.8,79.5 q -0.7,-1.9 -1.4,-4.6 a 25.755,25.755 0 0 1 -8.696,4.152 24.093,24.093 0 0 1 -6.004,0.748 q -9.6,0 -15,-7.2 -5.4,-7.2 -5.4,-19.3 a 41.954,41.954 0 0 1 0.718,-8.023 q 1.579,-8.096 6.632,-12.977 6.532,-6.31 17.999,-7.012 A 48.272,48.272 0 0 1 573.6,25.2 q 0.683,0 3.994,0.146 A 887.392,887.392 0 0 1 578.8,25.4 Z M 0.9,77.9 0.4,68.3 7.7,66.3 V 28.2 A 26.845,26.845 0 0 0 7.681,27.146 Q 7.619,25.59 7.361,24.896 A 1.902,1.902 0 0 0 7.3,24.75 Q 6.96,24.027 5.68,23.413 A 9.252,9.252 0 0 0 5.2,23.2 L 0,20.3 0.6,12 A 1885.546,1885.546 0 0 1 7.936,11.449 Q 10.799,11.24 13.34,11.065 A 888.188,888.188 0 0 1 18.1,10.75 q 7.1,-0.45 11.4,-0.45 13.8,0 22.15,3.2 a 26.075,26.075 0 0 1 6.544,3.584 20.998,20.998 0 0 1 5.656,6.516 q 3.85,6.9 3.85,18.3 a 51.422,51.422 0 0 1 -0.852,9.64 q -1.093,5.72 -3.584,10.274 A 29.211,29.211 0 0 1 61.1,65.2 q -5.9,7.7 -15.65,10.65 a 60.225,60.225 0 0 1 -8.037,1.798 q -4.335,0.684 -9.379,0.962 A 131.652,131.652 0 0 1 20.8,78.8 Q 10,78.8 0.9,77.9 Z m 474.6,-25 -30.4,5.6 a 17.721,17.721 0 0 0 1.098,2.622 q 0.718,1.37 1.62,2.38 a 8.893,8.893 0 0 0 1.232,1.148 8.989,8.989 0 0 0 3.229,1.536 q 1.585,0.414 3.521,0.414 a 24.399,24.399 0 0 0 2.33,-0.12 q 1.294,-0.124 2.755,-0.378 A 49.732,49.732 0 0 0 462.7,65.75 q 4,-0.85 8.1,-2.35 l 2.3,9.9 a 24.25,24.25 0 0 1 -3.805,2.332 q -1.926,0.963 -4.223,1.757 A 44.818,44.818 0 0 1 463.5,77.9 q -5.9,1.8 -11.9,1.8 A 30.821,30.821 0 0 1 444.19,78.861 20.499,20.499 0 0 1 433.55,72.6 q -5.814,-6.5 -6.305,-17.526 A 46.603,46.603 0 0 1 427.2,53 a 40.941,40.941 0 0 1 0.572,-7.024 q 0.713,-4.089 2.311,-7.477 a 25.343,25.343 0 0 1 0.217,-0.449 22.788,22.788 0 0 1 5.264,-7 21.574,21.574 0 0 1 3.536,-2.55 q 5.7,-3.3 13.3,-3.3 a 28.301,28.301 0 0 1 7.148,0.851 19.339,19.339 0 0 1 10.202,6.349 q 5.764,6.86 5.764,19.257 A 55.127,55.127 0 0 1 475.5,52.9 Z m 177.5,0 -30.4,5.6 a 17.721,17.721 0 0 0 1.098,2.622 q 0.718,1.37 1.62,2.38 a 8.893,8.893 0 0 0 1.232,1.148 8.989,8.989 0 0 0 3.229,1.536 q 1.585,0.414 3.521,0.414 a 24.399,24.399 0 0 0 2.33,-0.12 q 1.294,-0.124 2.755,-0.378 A 49.732,49.732 0 0 0 640.2,65.75 q 4,-0.85 8.1,-2.35 l 2.3,9.9 a 24.25,24.25 0 0 1 -3.805,2.332 q -1.926,0.963 -4.223,1.757 A 44.818,44.818 0 0 1 641,77.9 q -5.9,1.8 -11.9,1.8 A 30.821,30.821 0 0 1 621.69,78.861 20.499,20.499 0 0 1 611.05,72.6 q -5.814,-6.5 -6.305,-17.526 A 46.603,46.603 0 0 1 604.7,53 a 40.941,40.941 0 0 1 0.572,-7.024 q 0.713,-4.089 2.311,-7.477 a 25.343,25.343 0 0 1 0.217,-0.449 22.788,22.788 0 0 1 5.264,-7 21.574,21.574 0 0 1 3.536,-2.55 q 5.7,-3.3 13.3,-3.3 a 28.301,28.301 0 0 1 7.148,0.851 19.339,19.339 0 0 1 10.202,6.349 q 5.764,6.86 5.764,19.257 A 55.127,55.127 0 0 1 653,52.9 Z m 5,25.6 -0.5,-9.5 6.1,-1.8 V 42.9 q 0,-1.935 -0.232,-2.671 A 1.521,1.521 0 0 0 663.3,40.05 1.737,1.737 0 0 0 663.038,39.656 Q 662.734,39.3 662.165,38.904 A 9.802,9.802 0 0 0 661.7,38.6 l -4.4,-2.4 0.3,-7.5 a 28.569,28.569 0 0 1 1.205,-0.258 q 0.561,-0.107 1.053,-0.172 a 13.239,13.239 0 0 1 0.642,-0.07 253.247,253.247 0 0 1 5.656,-1.106 Q 674.05,25.65 678.4,25.5 a 36.861,36.861 0 0 1 0.661,2.133 q 0.269,0.965 0.529,2.056 a 75.84,75.84 0 0 1 0.51,2.311 80.775,80.775 0 0 1 3.574,-2.654 q 3.552,-2.479 6.336,-3.719 A 22.025,22.025 0 0 1 690.3,25.5 h 5.7 q -0.1,3.8 -0.5,8.25 a 93.02,93.02 0 0 1 -0.27,2.61 q -0.307,2.597 -0.704,4.419 A 27.135,27.135 0 0 1 694.5,40.9 q -3.6,-0.2 -5.3,-0.2 a 77.432,77.432 0 0 0 -7.301,0.356 86.802,86.802 0 0 0 -1.399,0.144 v 22.7 a 23.402,23.402 0 0 0 0.014,0.852 q 0.052,1.401 0.286,1.948 0.253,0.591 1.219,1.253 A 9.216,9.216 0 0 0 682.4,68.2 l 6,3.2 -0.4,7.1 z m -584.3,11.6 8,-9.3 V 42.9 q 0,-1.935 -0.232,-2.671 A 1.521,1.521 0 0 0 81.4,40.05 1.592,1.592 0 0 0 81.144,39.673 Q 80.706,39.175 79.7,38.6 l -4.5,-2.4 0.5,-7.5 q 1.055,-0.151 1.656,-0.302 A 4.775,4.775 0 0 0 77.7,28.3 294.817,294.817 0 0 1 78.311,28.19 q 1.755,-0.315 7.239,-1.29 a 132.129,132.129 0 0 1 4.375,-0.707 q 1.961,-0.281 3.68,-0.454 A 57.41,57.41 0 0 1 96.8,25.5 94.738,94.738 0 0 1 98.131,30.337 83.804,83.804 0 0 1 98.5,31.9 v 35.3 q 0,10.2 -1.5,17 A 36.218,36.218 0 0 1 91.814,96.335 41.362,41.362 0 0 1 91.3,97.1 l -2.8,4.1 Q 83.4,98.5 80.7,96.45 A 38.962,38.962 0 0 1 78.906,94.992 Q 76.69,93.09 73.7,90.1 Z M 290.15,73.3 a 18.42,18.42 0 0 0 4.805,3.57 q 5.619,2.93 14.145,2.93 12.7,0 19.75,-7.35 a 22.691,22.691 0 0 0 2.26,-2.761 q 2.795,-4.021 3.959,-9.373 A 39.13,39.13 0 0 0 335.9,52 q 0,-20.728 -15.494,-25.424 A 35.909,35.909 0 0 0 310,25.2 q -8,0 -13.9,3.4 -5.9,3.4 -9.05,9.8 a 29.55,29.55 0 0 0 -2.469,7.48 39.613,39.613 0 0 0 -0.681,7.52 48.372,48.372 0 0 0 0.308,5.614 q 0.451,3.853 1.561,6.979 A 20.051,20.051 0 0 0 290.15,73.3 Z M 25.8,23 v 41 a 65.417,65.417 0 0 0 4.844,0.43 55.204,55.204 0 0 0 2.756,0.07 57.753,57.753 0 0 0 4.908,-0.195 q 2.433,-0.208 4.478,-0.638 A 22.759,22.759 0 0 0 46.7,62.5 19.047,19.047 0 0 0 47.194,60.872 q 0.424,-1.624 0.812,-3.932 A 88.585,88.585 0 0 0 48.35,54.7 78.325,78.325 0 0 0 48.956,48.959 62.363,62.363 0 0 0 49.1,44.8 43.933,43.933 0 0 0 48.732,38.91 Q 48.321,35.879 47.45,33.431 a 16.596,16.596 0 0 0 -3,-5.331 14.643,14.643 0 0 0 -6.998,-4.439 Q 35.094,22.94 32.25,22.76 A 30.844,30.844 0 0 0 30.3,22.7 q -1.3,0 -2.4,0.1 -1.1,0.1 -2.1,0.2 z m 288.078,44.82 a 10.888,10.888 0 0 0 0.322,-0.07 q 1.5,-0.35 3.2,-1.15 a 28.163,28.163 0 0 0 0.405,-1.821 q 0.339,-1.773 0.595,-4.079 a 64.771,64.771 0 0 0 0.375,-5.231 56.348,56.348 0 0 0 0.025,-1.669 41.325,41.325 0 0 0 -0.225,-4.466 Q 318.043,44.453 316.25,41.5 a 8.92,8.92 0 0 0 -2.476,-2.719 Q 311.669,37.3 308.7,37.3 a 25.9,25.9 0 0 0 -6.169,0.765 28.984,28.984 0 0 0 -0.531,0.135 7.585,7.585 0 0 0 -0.37,0.99 q -0.334,1.098 -0.58,2.741 a 38.104,38.104 0 0 0 -0.15,1.119 q -0.373,3.128 -0.398,7.083 A 90.426,90.426 0 0 0 300.5,50.7 q 0,5.297 1.054,9.043 a 16.241,16.241 0 0 0 1.596,3.857 10.13,10.13 0 0 0 2.088,2.562 q 2.211,1.908 5.362,1.938 a 10.595,10.595 0 0 0 0.1,0 q 1.789,0 3.178,-0.28 z M 578.9,64.8 V 38.9 a 14.077,14.077 0 0 0 -2.718,-0.842 q -1.37,-0.286 -2.973,-0.394 A 30.085,30.085 0 0 0 571.2,37.6 q -3.8,0 -7.3,1 -0.8,1.9 -1.25,5.2 -0.45,3.3 -0.45,7.3 0,7.142 1.707,10.984 a 10.805,10.805 0 0 0 0.543,1.066 7.536,7.536 0 0 0 2.778,2.826 q 1.404,0.8 3.222,0.975 A 10.965,10.965 0 0 0 571.5,67 q 2.66,0 5.839,-1.429 A 24.872,24.872 0 0 0 578.9,64.8 Z M 82.9,19.8 78.8,4.5 95.8,0 100,15.2 Z M 387.6,22 v 17.9 q 2.183,0.504 5.071,0.585 A 40.384,40.384 0 0 0 393.8,40.5 q 5.3,0 7.8,-1 0.855,-3.078 0.979,-7.179 A 47.029,47.029 0 0 0 402.6,30.9 18.382,18.382 0 0 0 402.448,28.448 q -0.379,-2.807 -1.705,-4.336 A 5.154,5.154 0 0 0 400.45,23.8 q -2.067,-2.019 -6.767,-2.097 A 23.033,23.033 0 0 0 393.3,21.7 q -2.8,0 -5.7,0.3 z M 252.8,80.5 249.6,80 q -4.4,-0.5 -8.9,-1.4 a 35.715,35.715 0 0 0 -0.315,1.571 q -0.285,1.626 -0.285,2.729 0,3.231 2.577,4.972 a 7.787,7.787 0 0 0 0.623,0.378 11.409,11.409 0 0 0 2.455,0.96 q 2.473,0.679 6.046,0.774 A 44.901,44.901 0 0 0 253,90 42.926,42.926 0 0 0 255.413,89.937 Q 258.275,89.775 260,89.2 a 4.982,4.982 0 0 0 0.377,-1.06 Q 260.6,87.219 260.6,86 a 5.396,5.396 0 0 0 -0.201,-1.514 3.963,3.963 0 0 0 -1.499,-2.136 6.081,6.081 0 0 0 -1.208,-0.668 q -1.282,-0.549 -3.283,-0.924 A 32.824,32.824 0 0 0 252.8,80.5 Z m -2,-28.1 a 17.72,17.72 0 0 0 1.952,-0.115 q 0.997,-0.111 2.1,-0.328 a 31.79,31.79 0 0 0 0.748,-0.157 10.665,10.665 0 0 0 0.221,-0.77 q 0.277,-1.105 0.529,-2.83 0.35,-2.4 0.35,-4.4 a 16.511,16.511 0 0 0 -0.172,-2.468 Q 256.121,38.647 254.75,37.1 a 6.055,6.055 0 0 0 -2.679,-1.717 q -0.996,-0.332 -2.216,-0.436 A 13.623,13.623 0 0 0 248.7,34.9 q -1.937,0 -4.25,0.563 a 24.979,24.979 0 0 0 -0.15,0.037 8.366,8.366 0 0 0 -0.297,0.854 q -0.268,0.913 -0.484,2.211 A 32.255,32.255 0 0 0 243.45,39 a 30.718,30.718 0 0 0 -0.316,3.068 26.371,26.371 0 0 0 -0.034,1.332 17.822,17.822 0 0 0 0.15,2.398 q 0.384,2.821 1.75,4.402 1.699,1.967 4.996,2.175 A 12.749,12.749 0 0 0 250.8,52.4 Z m -113.6,13.4 -0.4,-7.6 a 138.795,138.795 0 0 0 -0.973,-0.078 Q 134.225,58 133.6,58 q -2.261,0 -5.153,0.386 a 60.905,60.905 0 0 0 -1.147,0.164 58.25,58.25 0 0 0 -2.104,0.358 q -2.009,0.384 -3.401,0.828 A 16.582,16.582 0 0 0 121.6,59.8 q -0.3,1.3 -0.3,2.4 a 8.761,8.761 0 0 0 0.186,1.863 q 0.264,1.212 0.902,2.119 a 5.068,5.068 0 0 0 0.562,0.668 5.449,5.449 0 0 0 2.665,1.446 8.207,8.207 0 0 0 1.885,0.204 15.159,15.159 0 0 0 3.167,-0.364 q 2.926,-0.627 6.533,-2.336 z m 306.9,-17.2 15,-4.1 q -0.129,-2.454 -0.988,-4.053 A 5.461,5.461 0 0 0 456.95,38.95 6.44,6.44 0 0 0 454.397,37.572 Q 453.113,37.2 451.5,37.2 A 18.841,18.841 0 0 0 446.737,37.791 17.438,17.438 0 0 0 446,38 a 24.109,24.109 0 0 0 -1.917,9.454 q 0,0.08 0,0.161 A 28.096,28.096 0 0 0 444.1,48.6 Z m 177.5,0 15,-4.1 q -0.129,-2.454 -0.988,-4.053 A 5.461,5.461 0 0 0 634.45,38.95 6.44,6.44 0 0 0 631.897,37.572 Q 630.613,37.2 629,37.2 a 18.841,18.841 0 0 0 -4.763,0.591 17.438,17.438 0 0 0 -0.737,0.209 24.109,24.109 0 0 0 -1.917,9.454 q 0,0.08 0,0.161 A 28.096,28.096 0 0 0 621.6,48.6 Z"
       vector-effect="non-scaling-stroke"
       id="path1"
       style="fill:#ffffff;filter:url(#filter12)" />
  </g>
</svg>
