<svg width="696" height="101.3" viewBox="0 0 696 101.3" xmlns="http://www.w3.org/2000/svg"><g id="svgGroup" stroke-linecap="round" fill-rule="evenodd" font-size="9pt" fill="#ffffff" style="fill:#ffffff"><path d="M 162.3 78.4 L 161.8 68.9 L 168 67.1 L 168 42.9 Q 168 40.965 167.768 40.229 A 1.521 1.521 0 0 0 167.7 40.05 A 1.737 1.737 0 0 0 167.438 39.656 Q 167.134 39.3 166.565 38.904 A 9.802 9.802 0 0 0 166.1 38.6 L 161.7 36.2 L 162 28.7 L 164.2 28.3 A 305.79 305.79 0 0 1 170.294 27.15 Q 178.75 25.65 183.1 25.5 A 26.949 26.949 0 0 1 184.021 28.429 A 32.622 32.622 0 0 1 184.4 30.1 Q 190.222 27.428 193.994 26.35 A 30.384 30.384 0 0 1 194.35 26.25 A 30.862 30.862 0 0 1 198.426 25.416 A 24.246 24.246 0 0 1 201.6 25.2 A 18.91 18.91 0 0 1 208.369 26.314 Q 217.5 29.802 217.5 44.2 L 217.5 63.8 A 23.402 23.402 0 0 0 217.514 64.652 Q 217.566 66.053 217.8 66.6 Q 218.042 67.165 219.002 67.796 A 9.419 9.419 0 0 0 219.5 68.1 L 224.3 70.9 L 223.9 78.4 L 196.3 78.4 L 195.8 68.9 L 200.7 67.5 L 200.7 48.6 Q 200.7 44.175 200.41 42.361 A 9.332 9.332 0 0 0 200.4 42.3 Q 200.1 40.5 198.75 39.5 A 3.848 3.848 0 0 0 197.722 38.978 Q 196.671 38.612 195.043 38.526 A 19.918 19.918 0 0 0 194 38.5 A 30.641 30.641 0 0 0 191.3 38.63 Q 189.905 38.754 188.305 38.997 A 73.818 73.818 0 0 0 184.9 39.6 L 184.9 63.8 A 23.402 23.402 0 0 0 184.914 64.652 Q 184.966 66.053 185.2 66.6 Q 185.453 67.191 186.419 67.853 A 9.216 9.216 0 0 0 186.8 68.1 L 191.7 70.9 L 191.3 78.4 L 162.3 78.4 Z M 480.9 78.4 L 480.4 68.9 L 486.6 67.1 L 486.6 42.9 Q 486.6 40.965 486.368 40.229 A 1.521 1.521 0 0 0 486.3 40.05 A 1.737 1.737 0 0 0 486.038 39.656 Q 485.734 39.3 485.165 38.904 A 9.802 9.802 0 0 0 484.7 38.6 L 480.3 36.2 L 480.6 28.7 L 482.8 28.3 A 305.79 305.79 0 0 1 488.894 27.15 Q 497.35 25.65 501.7 25.5 A 26.949 26.949 0 0 1 502.621 28.429 A 32.622 32.622 0 0 1 503 30.1 Q 508.822 27.428 512.594 26.35 A 30.384 30.384 0 0 1 512.95 26.25 A 30.862 30.862 0 0 1 517.026 25.416 A 24.246 24.246 0 0 1 520.2 25.2 A 18.91 18.91 0 0 1 526.969 26.314 Q 536.1 29.802 536.1 44.2 L 536.1 63.8 A 23.402 23.402 0 0 0 536.114 64.652 Q 536.166 66.053 536.4 66.6 Q 536.642 67.165 537.602 67.796 A 9.419 9.419 0 0 0 538.1 68.1 L 542.9 70.9 L 542.5 78.4 L 514.9 78.4 L 514.4 68.9 L 519.3 67.5 L 519.3 48.6 Q 519.3 44.175 519.01 42.361 A 9.332 9.332 0 0 0 519 42.3 Q 518.7 40.5 517.35 39.5 A 3.848 3.848 0 0 0 516.322 38.978 Q 515.271 38.612 513.643 38.526 A 19.918 19.918 0 0 0 512.6 38.5 A 30.641 30.641 0 0 0 509.9 38.63 Q 508.505 38.754 506.905 38.997 A 73.818 73.818 0 0 0 503.5 39.6 L 503.5 63.8 A 23.402 23.402 0 0 0 503.514 64.652 Q 503.566 66.053 503.8 66.6 Q 504.053 67.191 505.019 67.853 A 9.216 9.216 0 0 0 505.4 68.1 L 510.3 70.9 L 509.9 78.4 L 480.9 78.4 Z M 362.5 78.5 L 362 68.3 L 369.3 66.3 L 369.3 28.2 A 26.845 26.845 0 0 0 369.281 27.146 Q 369.219 25.59 368.961 24.896 A 1.902 1.902 0 0 0 368.9 24.75 Q 368.56 24.027 367.28 23.413 A 9.252 9.252 0 0 0 366.8 23.2 L 361.6 20.3 L 362.2 12.1 Q 377.2 9.9 391.1 9.9 A 89.986 89.986 0 0 1 397.44 10.11 Q 400.701 10.341 403.466 10.826 A 36.836 36.836 0 0 1 408.5 12.05 A 23.235 23.235 0 0 1 412.93 13.988 Q 416.238 15.897 418.15 18.75 Q 421.2 23.3 421.2 30.8 Q 421.2 37 418 41.65 A 19.317 19.317 0 0 1 411.681 47.416 A 24.705 24.705 0 0 1 408.9 48.8 L 424.9 74.6 L 424.8 78.5 L 406.6 78.5 L 391.8 51.8 L 387.4 51.7 L 387.4 62.9 A 26.59 26.59 0 0 0 387.412 63.738 Q 387.454 65.068 387.641 65.677 A 1.516 1.516 0 0 0 387.75 65.95 A 1.852 1.852 0 0 0 388.03 66.327 Q 388.494 66.825 389.5 67.4 L 393.8 69.9 L 393.4 78.5 L 362.5 78.5 Z M 264.3 27.7 L 276.3 24 L 281 24 L 281 38.5 L 273.2 38.5 A 25.121 25.121 0 0 1 273.697 43.024 A 23.157 23.157 0 0 1 273.7 43.4 Q 273.7 52.6 267.5 57.4 A 20.135 20.135 0 0 1 261.371 60.552 Q 256.331 62.2 249.3 62.2 Q 245.2 62.2 241.9 61.6 L 241.9 63 Q 241.9 64.6 243.25 65.25 Q 244.422 65.814 247.97 66.341 A 76.988 76.988 0 0 0 249.1 66.5 L 258.1 67.8 Q 266.631 69.007 270.919 71.639 A 12.049 12.049 0 0 1 272.75 73 A 12.176 12.176 0 0 1 276.788 81.872 A 16.134 16.134 0 0 1 276.8 82.5 A 17.375 17.375 0 0 1 275.602 89.078 Q 273.823 93.471 269.4 96.4 A 25.711 25.711 0 0 1 262.519 99.527 Q 259.202 100.517 255.185 100.955 A 62.829 62.829 0 0 1 248.4 101.3 Q 236.9 101.3 231.05 97.7 A 12.501 12.501 0 0 1 227.208 94.136 Q 225.2 91.202 225.2 87.1 A 15.267 15.267 0 0 1 229.005 77.036 A 22.948 22.948 0 0 1 232 74.1 A 8.072 8.072 0 0 1 230.72 72.469 A 5.802 5.802 0 0 1 229.9 69.5 Q 229.9 66.677 232.79 62.009 A 50.774 50.774 0 0 1 234.6 59.3 Q 226.4 55 226.4 44.5 A 21.66 21.66 0 0 1 227.207 38.423 A 16.044 16.044 0 0 1 232.65 30.25 A 20.344 20.344 0 0 1 239.181 26.798 Q 242.079 25.849 245.597 25.464 A 46.911 46.911 0 0 1 250.7 25.2 A 45.277 45.277 0 0 1 256.278 25.523 Q 260.905 26.098 264.3 27.7 Z M 121.7 38.3 L 117.6 46.4 L 110.2 45.9 Q 108.5 37.9 107.8 29.3 Q 113.4 27.4 120.05 26.3 A 84.491 84.491 0 0 1 127.262 25.411 A 67.407 67.407 0 0 1 132.5 25.2 A 43.01 43.01 0 0 1 137.708 25.493 Q 143.377 26.187 146.669 28.525 A 11.346 11.346 0 0 1 147.7 29.35 A 12.287 12.287 0 0 1 150.885 34.127 Q 151.67 36.15 152.019 38.69 A 32.411 32.411 0 0 1 152.3 43.1 L 152.3 64 A 14.595 14.595 0 0 0 152.322 64.828 Q 152.387 65.974 152.65 66.5 A 2.114 2.114 0 0 0 152.981 66.97 Q 153.344 67.37 153.983 67.769 A 8.364 8.364 0 0 0 154.2 67.9 L 158.2 70.2 L 157.8 76.4 Q 146.2 79.1 139.5 79.4 A 12.083 12.083 0 0 1 139.388 79.044 Q 139.221 78.482 138.962 77.49 A 108.961 108.961 0 0 1 138.9 77.25 A 77.226 77.226 0 0 1 138.397 75.19 A 65.247 65.247 0 0 1 138.2 74.3 A 36.531 36.531 0 0 1 129.723 78.277 A 40.298 40.298 0 0 1 129.65 78.3 Q 125 79.8 120.8 79.8 A 20.01 20.01 0 0 1 116.125 79.284 A 13.825 13.825 0 0 1 109.9 76.05 A 12.367 12.367 0 0 1 105.812 67.039 A 16.488 16.488 0 0 1 105.8 66.4 A 12.888 12.888 0 0 1 110.652 56.131 A 20.244 20.244 0 0 1 113.75 54 A 31.104 31.104 0 0 1 120.072 51.367 Q 126.925 49.294 136.9 48.9 Q 136.9 45.098 136.409 42.899 A 9.678 9.678 0 0 0 136.15 41.95 A 5.769 5.769 0 0 0 135.381 40.406 A 4.578 4.578 0 0 0 133.45 38.85 Q 131.752 38.11 128.498 38.014 A 34.038 34.038 0 0 0 127.5 38 Q 123.4 38 121.7 38.3 Z M 578.8 25.4 L 578.8 19.4 A 25.543 25.543 0 0 0 578.786 18.509 Q 578.741 17.242 578.559 16.662 A 1.721 1.721 0 0 0 578.5 16.5 Q 578.258 15.935 577.298 15.304 A 9.419 9.419 0 0 0 576.8 15 L 572.3 12.7 L 572.8 5.1 Q 582.226 3.431 586.832 2.774 A 130.509 130.509 0 0 1 587 2.75 Q 591.6 2.1 594.3 2 A 20.407 20.407 0 0 1 595.154 4.777 A 26.409 26.409 0 0 1 595.6 7.2 L 595.6 64.1 A 14.595 14.595 0 0 0 595.622 64.928 Q 595.687 66.074 595.95 66.6 A 1.935 1.935 0 0 0 596.277 67.054 Q 596.641 67.441 597.297 67.829 A 8.713 8.713 0 0 0 597.6 68 L 601.4 70.3 L 601 76.5 A 100.846 100.846 0 0 1 585.339 79.242 A 91.112 91.112 0 0 1 581.8 79.5 Q 581.1 77.6 580.4 74.9 A 25.755 25.755 0 0 1 571.704 79.052 A 24.093 24.093 0 0 1 565.7 79.8 Q 556.1 79.8 550.7 72.6 Q 545.3 65.4 545.3 53.3 A 41.954 41.954 0 0 1 546.018 45.277 Q 547.597 37.181 552.65 32.3 Q 559.182 25.99 570.649 25.288 A 48.272 48.272 0 0 1 573.6 25.2 Q 574.283 25.2 577.594 25.346 A 887.392 887.392 0 0 1 578.8 25.4 Z M 0.9 77.9 L 0.4 68.3 L 7.7 66.3 L 7.7 28.2 A 26.845 26.845 0 0 0 7.681 27.146 Q 7.619 25.59 7.361 24.896 A 1.902 1.902 0 0 0 7.3 24.75 Q 6.96 24.027 5.68 23.413 A 9.252 9.252 0 0 0 5.2 23.2 L 0 20.3 L 0.6 12 A 1885.546 1885.546 0 0 1 7.936 11.449 Q 10.799 11.24 13.34 11.065 A 888.188 888.188 0 0 1 18.1 10.75 Q 25.2 10.3 29.5 10.3 Q 43.3 10.3 51.65 13.5 A 26.075 26.075 0 0 1 58.194 17.084 A 20.998 20.998 0 0 1 63.85 23.6 Q 67.7 30.5 67.7 41.9 A 51.422 51.422 0 0 1 66.848 51.54 Q 65.755 57.26 63.264 61.814 A 29.211 29.211 0 0 1 61.1 65.2 Q 55.2 72.9 45.45 75.85 A 60.225 60.225 0 0 1 37.413 77.648 Q 33.078 78.332 28.034 78.61 A 131.652 131.652 0 0 1 20.8 78.8 Q 10 78.8 0.9 77.9 Z M 475.5 52.9 L 445.1 58.5 A 17.721 17.721 0 0 0 446.198 61.122 Q 446.916 62.492 447.818 63.502 A 8.893 8.893 0 0 0 449.05 64.65 A 8.989 8.989 0 0 0 452.279 66.186 Q 453.864 66.6 455.8 66.6 A 24.399 24.399 0 0 0 458.13 66.48 Q 459.424 66.356 460.885 66.102 A 49.732 49.732 0 0 0 462.7 65.75 Q 466.7 64.9 470.8 63.4 L 473.1 73.3 A 24.25 24.25 0 0 1 469.295 75.632 Q 467.369 76.595 465.072 77.389 A 44.818 44.818 0 0 1 463.5 77.9 Q 457.6 79.7 451.6 79.7 A 30.821 30.821 0 0 1 444.19 78.861 A 20.499 20.499 0 0 1 433.55 72.6 Q 427.736 66.1 427.245 55.074 A 46.603 46.603 0 0 1 427.2 53 A 40.941 40.941 0 0 1 427.772 45.976 Q 428.485 41.887 430.083 38.499 A 25.343 25.343 0 0 1 430.3 38.05 A 22.788 22.788 0 0 1 435.564 31.05 A 21.574 21.574 0 0 1 439.1 28.5 Q 444.8 25.2 452.4 25.2 A 28.301 28.301 0 0 1 459.548 26.051 A 19.339 19.339 0 0 1 469.75 32.4 Q 475.514 39.26 475.514 51.657 A 55.127 55.127 0 0 1 475.5 52.9 Z M 653 52.9 L 622.6 58.5 A 17.721 17.721 0 0 0 623.698 61.122 Q 624.416 62.492 625.318 63.502 A 8.893 8.893 0 0 0 626.55 64.65 A 8.989 8.989 0 0 0 629.779 66.186 Q 631.364 66.6 633.3 66.6 A 24.399 24.399 0 0 0 635.63 66.48 Q 636.924 66.356 638.385 66.102 A 49.732 49.732 0 0 0 640.2 65.75 Q 644.2 64.9 648.3 63.4 L 650.6 73.3 A 24.25 24.25 0 0 1 646.795 75.632 Q 644.869 76.595 642.572 77.389 A 44.818 44.818 0 0 1 641 77.9 Q 635.1 79.7 629.1 79.7 A 30.821 30.821 0 0 1 621.69 78.861 A 20.499 20.499 0 0 1 611.05 72.6 Q 605.236 66.1 604.745 55.074 A 46.603 46.603 0 0 1 604.7 53 A 40.941 40.941 0 0 1 605.272 45.976 Q 605.985 41.887 607.583 38.499 A 25.343 25.343 0 0 1 607.8 38.05 A 22.788 22.788 0 0 1 613.064 31.05 A 21.574 21.574 0 0 1 616.6 28.5 Q 622.3 25.2 629.9 25.2 A 28.301 28.301 0 0 1 637.048 26.051 A 19.339 19.339 0 0 1 647.25 32.4 Q 653.014 39.26 653.014 51.657 A 55.127 55.127 0 0 1 653 52.9 Z M 658 78.5 L 657.5 69 L 663.6 67.2 L 663.6 42.9 Q 663.6 40.965 663.368 40.229 A 1.521 1.521 0 0 0 663.3 40.05 A 1.737 1.737 0 0 0 663.038 39.656 Q 662.734 39.3 662.165 38.904 A 9.802 9.802 0 0 0 661.7 38.6 L 657.3 36.2 L 657.6 28.7 A 28.569 28.569 0 0 1 658.805 28.442 Q 659.366 28.335 659.858 28.27 A 13.239 13.239 0 0 1 660.5 28.2 A 253.247 253.247 0 0 1 666.156 27.094 Q 674.05 25.65 678.4 25.5 A 36.861 36.861 0 0 1 679.061 27.633 Q 679.33 28.598 679.59 29.689 A 75.84 75.84 0 0 1 680.1 32 A 80.775 80.775 0 0 1 683.674 29.346 Q 687.226 26.867 690.01 25.627 A 22.025 22.025 0 0 1 690.3 25.5 L 696 25.5 Q 695.9 29.3 695.5 33.75 A 93.02 93.02 0 0 1 695.23 36.36 Q 694.923 38.957 694.526 40.779 A 27.135 27.135 0 0 1 694.5 40.9 Q 690.9 40.7 689.2 40.7 A 77.432 77.432 0 0 0 681.899 41.056 A 86.802 86.802 0 0 0 680.5 41.2 L 680.5 63.9 A 23.402 23.402 0 0 0 680.514 64.752 Q 680.566 66.153 680.8 66.7 Q 681.053 67.291 682.019 67.953 A 9.216 9.216 0 0 0 682.4 68.2 L 688.4 71.4 L 688 78.5 L 658 78.5 Z M 73.7 90.1 L 81.7 80.8 L 81.7 42.9 Q 81.7 40.965 81.468 40.229 A 1.521 1.521 0 0 0 81.4 40.05 A 1.592 1.592 0 0 0 81.144 39.673 Q 80.706 39.175 79.7 38.6 L 75.2 36.2 L 75.7 28.7 Q 76.755 28.549 77.356 28.398 A 4.775 4.775 0 0 0 77.7 28.3 A 294.817 294.817 0 0 1 78.311 28.19 Q 80.066 27.875 85.55 26.9 A 132.129 132.129 0 0 1 89.925 26.193 Q 91.886 25.912 93.605 25.739 A 57.41 57.41 0 0 1 96.8 25.5 A 94.738 94.738 0 0 1 98.131 30.337 A 83.804 83.804 0 0 1 98.5 31.9 L 98.5 67.2 Q 98.5 77.4 97 84.2 A 36.218 36.218 0 0 1 91.814 96.335 A 41.362 41.362 0 0 1 91.3 97.1 L 88.5 101.2 Q 83.4 98.5 80.7 96.45 A 38.962 38.962 0 0 1 78.906 94.992 Q 76.69 93.09 73.7 90.1 Z M 290.15 73.3 A 18.42 18.42 0 0 0 294.955 76.87 Q 300.574 79.8 309.1 79.8 Q 321.8 79.8 328.85 72.45 A 22.691 22.691 0 0 0 331.11 69.689 Q 333.905 65.668 335.069 60.316 A 39.13 39.13 0 0 0 335.9 52 Q 335.9 31.272 320.406 26.576 A 35.909 35.909 0 0 0 310 25.2 Q 302 25.2 296.1 28.6 Q 290.2 32 287.05 38.4 A 29.55 29.55 0 0 0 284.581 45.88 A 39.613 39.613 0 0 0 283.9 53.4 A 48.372 48.372 0 0 0 284.208 59.014 Q 284.659 62.867 285.769 65.993 A 20.051 20.051 0 0 0 290.15 73.3 Z M 25.8 23 L 25.8 64 A 65.417 65.417 0 0 0 30.644 64.43 A 55.204 55.204 0 0 0 33.4 64.5 A 57.753 57.753 0 0 0 38.308 64.305 Q 40.741 64.097 42.786 63.667 A 22.759 22.759 0 0 0 46.7 62.5 A 19.047 19.047 0 0 0 47.194 60.872 Q 47.618 59.248 48.006 56.94 A 88.585 88.585 0 0 0 48.35 54.7 A 78.325 78.325 0 0 0 48.956 48.959 A 62.363 62.363 0 0 0 49.1 44.8 A 43.933 43.933 0 0 0 48.732 38.91 Q 48.321 35.879 47.45 33.431 A 16.596 16.596 0 0 0 44.45 28.1 A 14.643 14.643 0 0 0 37.452 23.661 Q 35.094 22.94 32.25 22.76 A 30.844 30.844 0 0 0 30.3 22.7 Q 29 22.7 27.9 22.8 Q 26.8 22.9 25.8 23 Z M 313.878 67.82 A 10.888 10.888 0 0 0 314.2 67.75 Q 315.7 67.4 317.4 66.6 A 28.163 28.163 0 0 0 317.805 64.779 Q 318.144 63.006 318.4 60.7 A 64.771 64.771 0 0 0 318.775 55.469 A 56.348 56.348 0 0 0 318.8 53.8 A 41.325 41.325 0 0 0 318.575 49.334 Q 318.043 44.453 316.25 41.5 A 8.92 8.92 0 0 0 313.774 38.781 Q 311.669 37.3 308.7 37.3 A 25.9 25.9 0 0 0 302.531 38.065 A 28.984 28.984 0 0 0 302 38.2 A 7.585 7.585 0 0 0 301.63 39.19 Q 301.296 40.288 301.05 41.931 A 38.104 38.104 0 0 0 300.9 43.05 Q 300.527 46.178 300.502 50.133 A 90.426 90.426 0 0 0 300.5 50.7 Q 300.5 55.997 301.554 59.743 A 16.241 16.241 0 0 0 303.15 63.6 A 10.13 10.13 0 0 0 305.238 66.162 Q 307.449 68.07 310.6 68.1 A 10.595 10.595 0 0 0 310.7 68.1 Q 312.489 68.1 313.878 67.82 Z M 578.9 64.8 L 578.9 38.9 A 14.077 14.077 0 0 0 576.182 38.058 Q 574.812 37.772 573.209 37.664 A 30.085 30.085 0 0 0 571.2 37.6 Q 567.4 37.6 563.9 38.6 Q 563.1 40.5 562.65 43.8 Q 562.2 47.1 562.2 51.1 Q 562.2 58.242 563.907 62.084 A 10.805 10.805 0 0 0 564.45 63.15 A 7.536 7.536 0 0 0 567.228 65.976 Q 568.632 66.776 570.45 66.951 A 10.965 10.965 0 0 0 571.5 67 Q 574.16 67 577.339 65.571 A 24.872 24.872 0 0 0 578.9 64.8 Z M 82.9 19.8 L 78.8 4.5 L 95.8 0 L 100 15.2 L 82.9 19.8 Z M 387.6 22 L 387.6 39.9 Q 389.783 40.404 392.671 40.485 A 40.384 40.384 0 0 0 393.8 40.5 Q 399.1 40.5 401.6 39.5 Q 402.455 36.422 402.579 32.321 A 47.029 47.029 0 0 0 402.6 30.9 A 18.382 18.382 0 0 0 402.448 28.448 Q 402.069 25.641 400.743 24.112 A 5.154 5.154 0 0 0 400.45 23.8 Q 398.383 21.781 393.683 21.703 A 23.033 23.033 0 0 0 393.3 21.7 Q 390.5 21.7 387.6 22 Z M 252.8 80.5 L 249.6 80 Q 245.2 79.5 240.7 78.6 A 35.715 35.715 0 0 0 240.385 80.171 Q 240.1 81.797 240.1 82.9 Q 240.1 86.131 242.677 87.872 A 7.787 7.787 0 0 0 243.3 88.25 A 11.409 11.409 0 0 0 245.755 89.21 Q 248.228 89.889 251.801 89.984 A 44.901 44.901 0 0 0 253 90 A 42.926 42.926 0 0 0 255.413 89.937 Q 258.275 89.775 260 89.2 A 4.982 4.982 0 0 0 260.377 88.14 Q 260.6 87.219 260.6 86 A 5.396 5.396 0 0 0 260.399 84.486 A 3.963 3.963 0 0 0 258.9 82.35 A 6.081 6.081 0 0 0 257.692 81.682 Q 256.41 81.133 254.409 80.758 A 32.824 32.824 0 0 0 252.8 80.5 Z M 250.8 52.4 A 17.72 17.72 0 0 0 252.752 52.285 Q 253.749 52.174 254.852 51.957 A 31.79 31.79 0 0 0 255.6 51.8 A 10.665 10.665 0 0 0 255.821 51.03 Q 256.098 49.925 256.35 48.2 Q 256.7 45.8 256.7 43.8 A 16.511 16.511 0 0 0 256.528 41.332 Q 256.121 38.647 254.75 37.1 A 6.055 6.055 0 0 0 252.071 35.383 Q 251.075 35.051 249.855 34.947 A 13.623 13.623 0 0 0 248.7 34.9 Q 246.763 34.9 244.45 35.463 A 24.979 24.979 0 0 0 244.3 35.5 A 8.366 8.366 0 0 0 244.003 36.354 Q 243.735 37.267 243.519 38.565 A 32.255 32.255 0 0 0 243.45 39 A 30.718 30.718 0 0 0 243.134 42.068 A 26.371 26.371 0 0 0 243.1 43.4 A 17.822 17.822 0 0 0 243.25 45.798 Q 243.634 48.619 245 50.2 Q 246.699 52.167 249.996 52.375 A 12.749 12.749 0 0 0 250.8 52.4 Z M 137.2 65.8 L 136.8 58.2 A 138.795 138.795 0 0 0 135.827 58.122 Q 134.225 58 133.6 58 Q 131.339 58 128.447 58.386 A 60.905 60.905 0 0 0 127.3 58.55 A 58.25 58.25 0 0 0 125.196 58.908 Q 123.187 59.292 121.795 59.736 A 16.582 16.582 0 0 0 121.6 59.8 Q 121.3 61.1 121.3 62.2 A 8.761 8.761 0 0 0 121.486 64.063 Q 121.75 65.275 122.388 66.182 A 5.068 5.068 0 0 0 122.95 66.85 A 5.449 5.449 0 0 0 125.615 68.296 A 8.207 8.207 0 0 0 127.5 68.5 A 15.159 15.159 0 0 0 130.667 68.136 Q 133.593 67.509 137.2 65.8 Z M 444.1 48.6 L 459.1 44.5 Q 458.971 42.046 458.112 40.447 A 5.461 5.461 0 0 0 456.95 38.95 A 6.44 6.44 0 0 0 454.397 37.572 Q 453.113 37.2 451.5 37.2 A 18.841 18.841 0 0 0 446.737 37.791 A 17.438 17.438 0 0 0 446 38 A 24.109 24.109 0 0 0 444.083 47.454 Q 444.083 47.534 444.083 47.615 A 28.096 28.096 0 0 0 444.1 48.6 Z M 621.6 48.6 L 636.6 44.5 Q 636.471 42.046 635.612 40.447 A 5.461 5.461 0 0 0 634.45 38.95 A 6.44 6.44 0 0 0 631.897 37.572 Q 630.613 37.2 629 37.2 A 18.841 18.841 0 0 0 624.237 37.791 A 17.438 17.438 0 0 0 623.5 38 A 24.109 24.109 0 0 0 621.583 47.454 Q 621.583 47.534 621.583 47.615 A 28.096 28.096 0 0 0 621.6 48.6 Z" vector-effect="non-scaling-stroke"/></g></svg>
